PathFileType	3	(X/Y/Z)	feet_movements_1__fused_aligned.trc
DataRate	CameraRate	NumFrames	NumMarkers	Units	OrigDataRate	OrigDataStartFrame	OrigNumFrames
100.0	100.0	14	19	mm	100.0	1782	1830
Frame#	Time	pelvis			neck			head			hip_left			hip_right			knee_left			knee_right			ankle_left			ankle_right			heel_left			heel_right			toe_left			toe_right			shoulder_left			shoulder_right			elbow_left			elbow_right			wrist_left			wrist_right			
		X1	Y1	Z1	X2	Y2	Z2	X3	Y3	Z3	X4	Y4	Z4	X5	Y5	Z5	X6	Y6	Z6	X7	Y7	Z7	X8	Y8	Z8	X9	Y9	Z9	X10	Y10	Z10	X11	Y11	Z11	X12	Y12	Z12	X13	Y13	Z13	X14	Y14	Z14	X15	Y15	Z15	X16	Y16	Z16	X17	Y17	Z17	X18	Y18	Z18	X19	Y19	Z19	
1782	17.81000	126.099099	951.287814	497.838927	169.694268	1491.376437	563.383501	183.043352	1641.912072	475.992408	51.634833	971.331524	474.214234	200.563388	931.244101	521.463589	85.450972	1100.148177	70.730289	198.923067	522.358858	404.906222	83.987305	703.989520	91.786326	100.950522	135.807650	479.530520	84.740878	650.641781	116.237428	80.113327	91.275988	514.691214	85.999300	702.892015	-97.326424	146.985824	60.498369	304.114803	-10.195048	1441.775824	545.794642	336.279197	1442.403207	633.401524	-185.445725	1235.610350	433.742027	462.350599	1205.680437	640.968322	-314.238889	1100.246932	252.589498	587.410772	1121.166203	447.503319
1783	17.82000	125.639346	951.420733	497.606035	169.524751	1491.168064	563.809285	182.998743	1641.644812	476.508432	51.171538	971.653432	473.948036	200.107221	931.188029	521.263996	85.931057	1104.046259	71.701753	198.975243	522.353999	404.189821	85.343930	707.921092	92.943531	100.561113	135.911529	479.582475	86.069779	654.582666	117.424847	79.717002	91.414521	514.791928	88.330758	706.818073	-96.053955	146.540133	60.577602	304.257704	-10.263456	1441.769890	546.106643	335.830199	1442.255224	634.030661	-185.754746	1235.765134	434.035595	462.059063	1205.835786	642.398016	-314.895600	1100.327236	253.003119	587.943900	1122.117612	449.378882
1784	17.83000	125.179593	951.553652	497.373144	169.355235	1490.959691	564.235069	182.954134	1641.377553	477.024456	50.708243	971.975339	473.681838	199.651054	931.131957	521.064403	86.411143	1107.944342	72.673217	199.027418	522.349140	403.473419	86.700555	711.852664	94.100736	100.171705	136.015408	479.634430	87.398679	658.523550	118.612265	79.320676	91.553053	514.892642	90.662215	710.744130	-94.781485	146.094442	60.656835	304.400605	-10.331863	1441.763956	546.418643	335.381201	1442.107241	634.659797	-186.063766	1235.919917	434.329163	461.767527	1205.991134	643.827709	-315.552312	1100.407541	253.416739	588.477029	1123.069022	451.254445
1785	17.84000	124.719839	951.686571	497.140252	169.185719	1490.751318	564.660852	182.909525	1641.110293	477.540479	50.244948	972.297247	473.415640	199.194887	931.075885	520.864809	86.891228	1111.842425	73.644680	199.079593	522.344281	402.757018	88.057180	715.784235	95.257941	99.782297	136.119286	479.686386	88.727580	662.464434	119.799684	78.924351	91.691586	514.993356	92.993672	714.670188	-93.509016	145.648751	60.736067	304.543506	-10.400270	1441.758022	546.730643	334.932203	1441.959258	635.288934	-186.372787	1236.074701	434.622731	461.475990	1206.146483	645.257403	-316.209023	1100.487845	253.830359	589.010158	1124.020431	453.130007
1786	17.85000	124.260086	951.819490	496.907361	169.016203	1490.542945	565.086636	182.864916	1640.843033	478.056503	49.781653	972.619155	473.149442	198.738720	931.019813	520.665216	87.371313	1115.740508	74.616144	199.131769	522.339422	402.040617	89.413805	719.715807	96.415146	99.392888	136.223165	479.738341	90.056480	666.405319	120.987102	78.528026	91.830119	515.094070	95.325129	718.596245	-92.236547	145.203060	60.815300	304.686406	-10.468677	1441.752088	547.042643	334.483205	1441.811274	635.918071	-186.681807	1236.229484	434.916299	461.184454	1206.301832	646.687096	-316.865735	1100.568149	254.243979	589.543287	1124.971840	455.005570
1787	17.86000	123.800333	951.952409	496.674469	168.846687	1490.334572	565.512420	182.820307	1640.575774	478.572527	49.318357	972.941062	472.883244	198.282553	930.963741	520.465623	87.851398	1119.638591	75.587608	199.183944	522.334563	401.324215	90.770430	723.647378	97.572351	99.003480	136.327043	479.790296	91.385381	670.346203	122.174521	78.131700	91.968651	515.194785	97.656586	722.522303	-90.964077	144.757369	60.894532	304.829307	-10.537085	1441.746154	547.354643	334.034207	1441.663291	636.547207	-186.990828	1236.384268	435.209867	460.892918	1206.457180	648.116790	-317.522446	1100.648453	254.657599	590.076416	1125.923249	456.881133
1788	17.87000	123.340580	952.085328	496.441578	168.677170	1490.126199	565.938203	182.775698	1640.308514	479.088550	48.855062	973.262970	472.617046	197.826385	930.907669	520.266030	88.331484	1123.536673	76.559072	199.236119	522.329704	400.607814	92.127055	727.578950	98.729556	98.614071	136.430922	479.842252	92.714281	674.287087	123.361939	77.735375	92.107184	515.295499	99.988044	726.448360	-89.691608	144.311678	60.973765	304.972208	-10.605492	1441.740220	547.666643	333.585210	1441.515308	637.176344	-187.299849	1236.539051	435.503435	460.601382	1206.612529	649.546483	-318.179158	1100.728757	255.071219	590.609545	1126.874658	458.756695
1789	17.88000	122.880826	952.218246	496.208686	168.507654	1489.917826	566.363987	182.731089	1640.041255	479.604574	48.391767	973.584878	472.350848	197.370218	930.851597	520.066436	88.811569	1127.434756	77.530536	199.288295	522.324844	399.891413	93.483680	731.510522	99.886761	98.224663	136.534801	479.894207	94.043182	678.227971	124.549358	77.339049	92.245717	515.396213	102.319501	730.374417	-88.419138	143.865987	61.052998	305.115109	-10.673899	1441.734286	547.978644	333.136212	1441.367325	637.805480	-187.608869	1236.693835	435.797003	460.309846	1206.767878	650.976177	-318.835869	1100.809061	255.484839	591.142674	1127.826068	460.632258
1790	17.89000	122.421073	952.351165	495.975795	168.338138	1489.709453	566.789771	182.686480	1639.773995	480.120598	47.928472	973.906785	472.084650	196.914051	930.795525	519.866843	89.291654	1131.332839	78.501999	199.340470	522.319985	399.175012	94.840304	735.442093	101.043966	97.835255	136.638679	479.946162	95.372082	682.168856	125.736776	76.942724	92.384250	515.496927	104.650958	734.300475	-87.146669	143.420296	61.132230	305.258010	-10.742307	1441.728352	548.290644	332.687214	1441.219342	638.434617	-187.917890	1236.848619	436.090572	460.018310	1206.923226	652.405870	-319.492581	1100.889365	255.898459	591.675803	1128.777477	462.507820
1791	17.90000	121.961320	952.484084	495.742903	168.168622	1489.501080	567.215555	182.641871	1639.506735	480.636622	47.465177	974.228693	471.818452	196.457884	930.739454	519.667250	89.771739	1135.230922	79.473463	199.392645	522.315126	398.458610	96.196929	739.373665	102.201171	97.445846	136.742558	479.998117	96.700983	686.109740	126.924195	76.546398	92.522782	515.597641	106.982415	738.226532	-85.874199	142.974605	61.211463	305.400911	-10.810714	1441.722418	548.602644	332.238216	1441.071359	639.063754	-188.226910	1237.003402	436.384140	459.726774	1207.078575	653.835564	-320.149292	1100.969669	256.312079	592.208932	1129.728886	464.383383
1792	17.91000	121.422195	952.456643	495.118171	167.860007	1489.102851	567.668812	182.594447	1639.120465	481.259965	46.931234	974.342732	471.159293	195.913512	930.570535	519.076948	90.163976	1138.319667	79.846630	199.297863	522.195052	397.419939	97.055895	742.299375	102.496834	96.907556	136.787350	479.923052	97.496737	689.030999	127.253386	75.996410	92.608211	515.590207	108.770235	741.009527	-85.551134	142.473264	61.192361	305.445439	-11.082500	1441.514001	548.862297	331.770031	1440.600023	639.640194	-188.518216	1236.871284	436.482291	459.356049	1206.630228	654.373260	-320.487545	1100.931765	256.381933	591.820355	1129.833228	464.741291
1793	17.92000	120.883070	952.429202	494.493439	167.551391	1488.704622	568.122069	182.547024	1638.734194	481.883309	46.397291	974.456772	470.500135	195.369140	930.401617	518.486645	90.556213	1141.408413	80.219796	199.203081	522.074978	396.381268	97.914860	745.225085	102.792497	96.369266	136.832143	479.847986	98.292492	691.952258	127.582577	75.446421	92.693640	515.582772	110.558055	743.792521	-85.228068	141.971924	61.173260	305.489967	-11.354286	1441.305584	549.121951	331.301847	1440.128688	640.216635	-188.809522	1236.739165	436.580442	458.985323	1206.181881	654.910956	-320.825798	1100.893861	256.451787	591.431778	1129.937571	465.099200
1794	17.93000	120.343945	952.401761	493.868707	167.242776	1488.306393	568.575327	182.499600	1638.347923	482.506652	45.863347	974.570812	469.840977	194.824769	930.232699	517.896343	90.948450	1144.497159	80.592963	199.108298	521.954903	395.342597	98.773826	748.150795	103.088160	95.830975	136.876936	479.772920	99.088247	694.873516	127.911767	74.896433	92.779070	515.575338	112.345875	746.575515	-84.905003	141.470583	61.154158	305.534496	-11.626072	1441.097167	549.381604	330.833662	1439.657352	640.793075	-189.100828	1236.607046	436.678593	458.614598	1205.733534	655.448652	-321.164051	1100.855957	256.521641	591.043201	1130.041913	465.457108
1795	17.94000	119.804820	952.374319	493.243975	166.934161	1487.908164	569.028584	182.452177	1637.961652	483.129996	45.329404	974.684851	469.181819	194.280397	930.063780	517.306041	91.340686	1147.585905	80.966129	199.013516	521.834829	394.303926	99.632791	751.076506	103.383823	95.292685	136.921728	479.697854	99.884002	697.794775	128.240958	74.346444	92.864499	515.567903	114.133695	749.358510	-84.581937	140.969243	61.135056	305.579024	-11.897858	1440.888750	549.641257	330.365478	1439.186016	641.369515	-189.392134	1236.474928	436.776745	458.243873	1205.285187	655.986349	-321.502304	1100.818053	256.591494	590.654624	1130.146255	465.815017
